<svg width="243" height="82" viewBox="0 0 243 82" fill="none" xmlns="http://www.w3.org/2000/svg">
<path d="M233.345 82H8.97482C4.03867 82 0 77.3875 0 71.75V10.25C0 4.6125 4.03867 0 8.97482 0H233.345C238.281 0 242.32 4.6125 242.32 10.25V71.75C242.32 77.3875 238.281 82 233.345 82Z" fill="black"/>
<path d="M233.345 1.64C235.345 1.64 237.262 2.54712 238.676 4.16181C240.09 5.7765 240.884 7.96649 240.884 10.25V71.75C240.884 74.0335 240.09 76.2235 238.676 77.8382C237.262 79.4529 235.345 80.36 233.345 80.36H8.97482C6.97539 80.36 5.05785 79.4529 3.64405 77.8382C2.23024 76.2235 1.43597 74.0335 1.43597 71.75V10.25C1.43597 7.96649 2.23024 5.7765 3.64405 4.16181C5.05785 2.54712 6.97539 1.64 8.97482 1.64H233.345ZM233.345 0H8.97482C4.03867 0 0 4.6125 0 10.25V71.75C0 77.3875 4.03867 82 8.97482 82H233.345C238.281 82 242.32 77.3875 242.32 71.75V10.25C242.32 4.6125 238.281 0 233.345 0Z" fill="white"/>
<path d="M95.6476 23.5345C95.6476 24.9301 95.2304 26.0432 94.396 26.8573C93.4614 27.8375 92.2431 28.3359 90.7244 28.3359C89.2725 28.3359 88.0375 27.8375 87.0362 26.8407C86.0348 25.8439 85.5342 24.5978 85.5342 23.1358C85.5342 21.6738 86.0348 20.4278 87.0362 19.4309C88.0375 18.4341 89.2725 17.9191 90.7244 17.9191C91.4587 17.9191 92.1597 18.052 92.8105 18.3012C93.4614 18.567 93.9954 18.9325 94.4126 19.3977L93.4948 20.3115C93.1944 19.9459 92.7938 19.6469 92.2932 19.4475C91.7985 19.2333 91.2638 19.1257 90.7244 19.1319C89.6396 19.1319 88.7051 19.514 87.9541 20.2616C87.2031 21.0258 86.8359 21.9728 86.8359 23.1192C86.8359 24.2655 87.2031 25.2125 87.9541 25.9768C88.7051 26.7244 89.6229 27.1065 90.7244 27.1065C91.7257 27.1065 92.5435 26.8241 93.211 26.2758C93.8786 25.7276 94.2624 24.9467 94.3626 23.9831H90.7244V22.7869H95.5809C95.6142 23.0527 95.6476 23.3019 95.6476 23.5345ZM103.341 18.1517V19.3811H98.7851V22.5377H102.891V23.7339H98.7851V26.8905H103.341V28.1199H97.5001V18.1517H103.341ZM108.765 19.3811V28.1199H107.48V19.3811H104.676V18.1517H111.552V19.3811H108.765ZM117.827 28.1199H116.542V18.1517H117.827V28.1199ZM123.535 19.3811V28.1199H122.25V19.3811H119.446V18.1517H126.322V19.3811H123.535ZM140.824 23.1358C140.824 24.6144 140.324 25.8439 139.339 26.8407C138.338 27.8375 137.119 28.3359 135.667 28.3359C134.216 28.3359 132.997 27.8375 131.996 26.8407C131.011 25.8439 130.511 24.6144 130.511 23.1358C130.511 21.6572 131.011 20.4278 131.996 19.4309C132.981 18.4341 134.199 17.9191 135.667 17.9191C137.119 17.9191 138.338 18.4175 139.339 19.4309C140.34 20.4444 140.824 21.6738 140.824 23.1358ZM131.846 23.1358C131.846 24.2822 132.213 25.2458 132.931 25.9934C133.665 26.741 134.583 27.1231 135.667 27.1231C136.752 27.1231 137.67 26.741 138.388 25.9934C139.122 25.2458 139.489 24.2988 139.489 23.1358C139.489 21.9728 139.122 21.0258 138.388 20.2782C137.653 19.5306 136.752 19.1485 135.667 19.1485C134.583 19.1485 133.665 19.5306 132.931 20.2782C132.213 21.0258 131.846 21.9894 131.846 23.1358ZM143.912 28.1199H142.627V18.1517H144.195L149.069 25.9103H149.119L149.069 23.9831V18.1517H150.354V28.1199H149.019L143.928 19.9958H143.878L143.928 21.923V28.1199H143.912Z" fill="white" stroke="white" stroke-width="0.333777" stroke-miterlimit="10"/>
<path d="M130.227 42.657C126.305 42.657 123.101 45.6309 123.101 49.7179C123.101 53.7883 126.305 56.7788 130.227 56.7788C134.149 56.7788 137.353 53.7883 137.353 49.7179C137.353 45.6309 134.149 42.657 130.227 42.657ZM130.227 54.0043C128.074 54.0043 126.222 52.2432 126.222 49.7179C126.222 47.176 128.074 45.4315 130.227 45.4315C132.38 45.4315 134.232 47.176 134.232 49.7179C134.232 52.2432 132.363 54.0043 130.227 54.0043ZM114.673 42.657C110.751 42.657 107.547 45.6309 107.547 49.7179C107.547 53.7883 110.751 56.7788 114.673 56.7788C118.595 56.7788 121.799 53.7883 121.799 49.7179C121.799 45.6309 118.595 42.657 114.673 42.657ZM114.673 54.0043C112.52 54.0043 110.668 52.2432 110.668 49.7179C110.668 47.176 112.52 45.4315 114.673 45.4315C116.826 45.4315 118.678 47.176 118.678 49.7179C118.678 52.2432 116.826 54.0043 114.673 54.0043ZM96.1816 44.8334V47.8239H103.391C103.174 49.5019 102.607 50.7479 101.756 51.5953C100.704 52.6419 99.0688 53.7883 96.1983 53.7883C91.7591 53.7883 88.2878 50.2329 88.2878 45.8136C88.2878 41.3944 91.7591 37.839 96.1983 37.839C98.5848 37.839 100.337 38.7694 101.622 39.9822L103.742 37.8722C101.939 36.161 99.5528 34.8485 96.1816 34.8485C90.1069 34.8485 85.0001 39.7662 85.0001 45.8303C85.0001 51.8777 90.1069 56.812 96.1816 56.812C99.4694 56.812 101.939 55.7487 103.875 53.7384C105.861 51.7614 106.479 48.9703 106.479 46.7274C106.479 46.0296 106.429 45.3817 106.312 44.85H96.1816V44.8334ZM171.799 47.1594C171.215 45.5811 169.412 42.657 165.724 42.657C162.069 42.657 159.032 45.5146 159.032 49.7179C159.032 53.672 162.036 56.7788 166.075 56.7788C169.329 56.7788 171.215 54.8017 171.982 53.6554L169.562 52.0438C168.761 53.2234 167.66 54.0043 166.075 54.0043C164.489 54.0043 163.354 53.2899 162.637 51.8611L172.133 47.9568L171.799 47.1594ZM162.119 49.5185C162.036 46.7939 164.239 45.3983 165.824 45.3983C167.059 45.3983 168.111 46.013 168.461 46.8935L162.119 49.5185ZM154.409 56.3634H157.53V35.5962H154.409V56.3634ZM149.302 44.2353H149.185C148.484 43.4046 147.149 42.657 145.447 42.657C141.892 42.657 138.638 45.7638 138.638 49.7511C138.638 53.7052 141.892 56.7954 145.447 56.7954C147.133 56.7954 148.484 56.0478 149.185 55.1838H149.286V56.1973C149.286 58.9053 147.834 60.3507 145.497 60.3507C143.595 60.3507 142.41 58.9884 141.926 57.842L139.205 58.9718C139.99 60.8491 142.059 63.1418 145.497 63.1418C149.152 63.1418 152.239 60.9987 152.239 55.7819V43.089H149.286V44.2353H149.302ZM145.714 54.0043C143.561 54.0043 141.759 52.21 141.759 49.7511C141.759 47.259 143.561 45.4481 145.714 45.4481C147.834 45.4481 149.503 47.2757 149.503 49.7511C149.519 52.21 147.85 54.0043 145.714 54.0043ZM186.418 35.5962H178.958V56.3634H182.079V48.4885H186.435C189.89 48.4885 193.277 45.9964 193.277 42.0423C193.261 38.0882 189.856 35.5962 186.418 35.5962ZM186.485 45.5977H182.062V38.4703H186.485C188.821 38.4703 190.14 40.3975 190.14 42.0257C190.14 43.6539 188.821 45.5977 186.485 45.5977ZM205.744 42.6238C203.491 42.6238 201.154 43.6206 200.187 45.797L202.957 46.9434C203.541 45.797 204.642 45.4149 205.794 45.4149C207.396 45.4149 209.048 46.3785 209.065 48.0897V48.3057C208.498 47.9901 207.296 47.5083 205.811 47.5083C202.823 47.5083 199.803 49.1364 199.803 52.1767C199.803 54.9512 202.239 56.7455 204.976 56.7455C207.062 56.7455 208.231 55.8152 208.948 54.7186H209.048V56.3136H212.052V48.3556C212.069 44.6839 209.299 42.6238 205.744 42.6238ZM205.36 54.0043C204.342 54.0043 202.923 53.4892 202.923 52.2432C202.923 50.6483 204.693 50.0336 206.228 50.0336C207.596 50.0336 208.247 50.3326 209.065 50.7313C208.949 51.6306 208.51 52.4576 207.829 53.0593C207.148 53.6611 206.271 53.9967 205.36 54.0043ZM223.017 43.0724L219.445 52.077H219.345L215.64 43.0724H212.286L217.843 55.6656L214.672 62.66H217.927L226.488 43.0724H223.017ZM194.98 56.3634H198.1V35.5962H194.98V56.3634Z" fill="white"/>
<path d="M42.6679 39.811L20.7368 62.976V62.9965C20.9741 63.874 21.4119 64.6851 22.016 65.3664C22.6201 66.0477 23.3742 66.5808 24.2195 66.9241C25.0647 67.2674 25.9782 67.4117 26.8886 67.3456C27.7991 67.2794 28.6818 67.0048 29.4681 66.543L29.5299 66.502L54.1998 52.3365L42.6679 39.811Z" fill="#EA4335"/>
<path d="M64.8462 35.875L64.8256 35.8545L54.1792 29.7045L42.1737 40.344L54.2204 52.3365L64.8256 46.248C65.7636 45.7425 66.5473 44.9945 67.0942 44.0828C67.641 43.1711 67.9308 42.1295 67.9329 41.0676C67.935 40.0057 67.6494 38.963 67.1062 38.0491C66.5629 37.1353 65.7822 36.3842 64.8462 35.875Z" fill="#FBBC04"/>
<path d="M20.7367 19.024C20.6131 19.516 20.5308 20.008 20.5308 20.541V61.4795C20.5308 62.0125 20.5925 62.5045 20.7367 62.9965L43.4091 40.426L20.7367 19.024Z" fill="#4285F4"/>
<path d="M42.8327 41L54.1792 29.7045L29.5299 15.4775C28.7419 15.0085 27.8555 14.7273 26.9402 14.6561C26.0249 14.5849 25.1055 14.7256 24.2539 15.067C23.4023 15.4085 22.6416 15.9416 22.0315 16.6245C21.4213 17.3074 20.9782 18.1217 20.7368 19.0035L42.8327 41Z" fill="#34A853"/>
</svg>
