<svg width="243" height="82" viewBox="0 0 243 82" fill="none" xmlns="http://www.w3.org/2000/svg">
<g clip-path="url(#clip0_336_313)">
<path d="M9.88425 0H232.432C237.861 0 242.272 4.4116 242.272 9.84V72.16C242.272 77.5884 237.861 82 232.432 82H9.88425C4.45585 82 0.0442505 77.5884 0.0442505 72.16V9.84C0.0442505 4.4116 4.45585 0 9.88425 0Z" fill="white"/>
<path d="M53.0656 39.1304C53.0164 33.2592 57.8708 30.4056 58.084 30.2744C55.3288 26.2728 51.0648 25.7152 49.5724 25.666C45.9972 25.2888 42.5204 27.8144 40.7 27.8144C38.8468 27.8144 36.026 25.7152 33.0084 25.7644C29.1216 25.83 25.4644 28.0768 23.48 31.5864C19.3636 38.7204 22.4304 49.2164 26.3828 54.9892C28.3672 57.81 30.6632 60.9752 33.6972 60.8604C36.6492 60.7456 37.7644 58.9744 41.3232 58.9744C44.8656 58.9744 45.8988 60.8604 48.982 60.7948C52.1636 60.7456 54.148 57.9576 56.0668 55.104C58.3464 51.8732 59.2648 48.6752 59.2976 48.5112C59.2156 48.4784 53.1312 46.1496 53.0656 39.1304Z" fill="#0A0E13"/>
<path d="M47.2437 21.8776C48.8345 19.8932 49.9169 17.1872 49.6217 14.432C47.3257 14.5304 44.4393 16.0228 42.7829 17.9744C41.3233 19.6964 40.0113 22.5008 40.3393 25.1412C42.9305 25.338 45.5873 23.8292 47.2437 21.8776Z" fill="#0A0E13"/>
<path d="M95.9024 60.4504H91.7696L89.5064 53.3328H81.6344L79.486 60.4504H75.468L83.258 36.2276H88.0796L95.9024 60.4504ZM88.834 50.348L86.784 44.034C86.5708 43.378 86.1608 41.8692 85.5704 39.4748H85.4884C85.2424 40.508 84.8652 42.0332 84.3404 44.034L82.3232 50.348H88.834Z" fill="#0A0E13"/>
<path d="M115.927 51.5124C115.927 54.4808 115.123 56.826 113.5 58.548C112.056 60.0896 110.252 60.844 108.12 60.844C105.808 60.844 104.152 60.024 103.135 58.3676V67.5352H99.248V48.7244C99.248 46.8548 99.1988 44.9524 99.1004 42.9844H102.512L102.725 45.756H102.79C104.086 43.6732 106.054 42.6236 108.678 42.6236C110.744 42.6236 112.45 43.4436 113.828 45.0672C115.238 46.7072 115.927 48.8392 115.927 51.5124ZM111.974 51.6436C111.974 49.938 111.597 48.544 110.826 47.4452C109.99 46.2972 108.858 45.7232 107.448 45.7232C106.497 45.7232 105.628 46.0512 104.84 46.6744C104.07 47.314 103.545 48.134 103.315 49.1672C103.2 49.6428 103.135 50.0364 103.135 50.348V53.2672C103.135 54.53 103.528 55.6124 104.299 56.4816C105.07 57.3508 106.087 57.7936 107.333 57.7936C108.793 57.7936 109.924 57.2196 110.744 56.1044C111.564 54.9728 111.974 53.4968 111.974 51.6436Z" fill="#0A0E13"/>
<path d="M136 51.5124C136 54.4808 135.197 56.826 133.573 58.548C132.13 60.0896 130.326 60.844 128.194 60.844C125.882 60.844 124.225 60.024 123.208 58.3676V67.5352H119.322V48.7244C119.322 46.8548 119.272 44.9524 119.174 42.9844H122.585L122.798 45.756H122.864C124.16 43.6732 126.128 42.6236 128.752 42.6236C130.818 42.6236 132.524 43.4436 133.901 45.0672C135.312 46.7072 136 48.8392 136 51.5124ZM132.048 51.6436C132.048 49.938 131.671 48.544 130.9 47.4452C130.064 46.2972 128.932 45.7232 127.522 45.7232C126.57 45.7232 125.701 46.0512 124.914 46.6744C124.143 47.314 123.635 48.134 123.389 49.1672C123.274 49.6428 123.208 50.0364 123.208 50.348V53.2672C123.208 54.53 123.602 55.6124 124.373 56.4816C125.144 57.3508 126.16 57.7936 127.407 57.7936C128.866 57.7936 130.014 57.2196 130.818 56.1044C131.654 54.9728 132.048 53.4968 132.048 51.6436Z" fill="#0A0E13"/>
<path d="M158.468 53.6608C158.468 55.7272 157.747 57.4 156.32 58.6956C154.746 60.106 152.548 60.8112 149.727 60.8112C147.12 60.8112 145.037 60.3028 143.462 59.3024L144.364 56.0716C146.07 57.072 147.94 57.5804 149.973 57.5804C151.433 57.5804 152.581 57.2524 153.384 56.5964C154.204 55.9404 154.614 55.0548 154.614 53.956C154.614 52.972 154.27 52.152 153.614 51.4796C152.942 50.8072 151.826 50.184 150.268 49.61C145.988 48.0192 143.872 45.7068 143.872 42.6728C143.872 40.6884 144.627 39.0648 146.119 37.7856C147.612 36.5228 149.596 35.8832 152.072 35.8832C154.27 35.8832 156.107 36.2604 157.566 37.0312L156.582 40.18C155.205 39.442 153.663 39.0648 151.925 39.0648C150.564 39.0648 149.481 39.4092 148.71 40.0652C148.071 40.672 147.743 41.3936 147.743 42.2628C147.743 43.214 148.12 44.0176 148.858 44.6244C149.498 45.1984 150.678 45.8216 152.384 46.494C154.467 47.3304 155.992 48.3144 156.976 49.446C157.976 50.5776 158.468 51.988 158.468 53.6608Z" fill="#0A0E13"/>
<path d="M171.326 45.9036H167.046V54.3824C167.046 56.5308 167.8 57.6132 169.309 57.6132C169.998 57.6132 170.572 57.5476 171.031 57.4328L171.146 60.3848C170.375 60.6636 169.374 60.8112 168.128 60.8112C166.586 60.8112 165.406 60.3356 164.536 59.4008C163.667 58.466 163.241 56.8916 163.241 54.694V45.8872H160.699V42.9844H163.241V39.7864L167.046 38.6384V42.9844H171.326V45.9036Z" fill="#0A0E13"/>
<path d="M190.58 51.578C190.58 54.2676 189.809 56.4652 188.284 58.1872C186.676 59.9584 184.544 60.844 181.888 60.844C179.329 60.844 177.279 59.9912 175.754 58.302C174.229 56.6128 173.474 54.4644 173.474 51.8732C173.474 49.1672 174.262 46.9532 175.82 45.2312C177.394 43.5092 179.51 42.64 182.166 42.64C184.725 42.64 186.791 43.4928 188.349 45.1984C189.842 46.8384 190.58 48.9704 190.58 51.578ZM186.562 51.66C186.562 50.0528 186.217 48.6916 185.528 47.5436C184.708 46.1496 183.544 45.4608 182.035 45.4608C180.477 45.4608 179.28 46.1496 178.476 47.5436C177.771 48.6916 177.443 50.0856 177.443 51.742C177.443 53.3492 177.788 54.7268 178.476 55.8584C179.313 57.2524 180.494 57.9412 182.002 57.9412C183.478 57.9412 184.643 57.236 185.496 55.8256C186.201 54.6448 186.562 53.2672 186.562 51.66Z" fill="#0A0E13"/>
<path d="M203.208 46.3956C202.83 46.33 202.42 46.2972 201.978 46.2972C200.616 46.2972 199.55 46.8056 198.812 47.8388C198.173 48.7408 197.845 49.9052 197.845 51.2828V60.4504H193.958V48.4784C193.958 46.4612 193.925 44.6244 193.843 42.9844H197.222L197.369 46.33H197.484C197.894 45.182 198.534 44.2472 199.419 43.5584C200.288 42.9352 201.223 42.6236 202.224 42.6236C202.584 42.6236 202.912 42.6564 203.191 42.6892L203.208 46.3956Z" fill="#0A0E13"/>
<path d="M220.559 50.8892C220.559 51.578 220.51 52.1684 220.411 52.644H208.767C208.816 54.366 209.374 55.6944 210.456 56.5964C211.44 57.4 212.703 57.81 214.261 57.81C215.983 57.81 217.558 57.5312 218.968 56.99L219.575 59.6796C217.918 60.4012 215.967 60.762 213.72 60.762C211.014 60.762 208.882 59.9584 207.34 58.3676C205.799 56.7768 205.028 54.6284 205.028 51.9552C205.028 49.3312 205.75 47.1336 207.193 45.3788C208.702 43.5092 210.735 42.5744 213.294 42.5744C215.803 42.5744 217.722 43.5092 219.001 45.3788C220.034 46.8876 220.559 48.708 220.559 50.8892ZM216.852 49.8888C216.885 48.7408 216.623 47.7404 216.098 46.904C215.426 45.8216 214.392 45.2804 213.015 45.2804C211.752 45.2804 210.719 45.8052 209.932 46.8548C209.292 47.6912 208.898 48.708 208.784 49.8724L216.852 49.8888Z" fill="#0A0E13"/>
<path d="M86.9644 27.5684H84.9308L83.8156 24.0752H79.9452L78.8792 27.5684H76.9112L80.7324 15.662H83.094L86.9644 27.5684ZM83.4712 22.5992L82.4708 19.4832C82.3724 19.1716 82.1756 18.4172 81.864 17.2364H81.8312C81.7 17.7448 81.536 18.4828 81.2572 19.4832L80.2732 22.5992H83.4712Z" fill="#0A0E13"/>
<path d="M96.542 18.9748L93.2948 27.5684H91.4416L88.2928 18.9748H90.3428L91.8024 23.5176C92.0484 24.272 92.2616 24.9936 92.4256 25.6824H92.4748C92.6224 25.0592 92.8356 24.3376 93.098 23.5176L94.5412 18.9748H96.542Z" fill="#0A0E13"/>
<path d="M103.463 27.5684L103.315 26.5844H103.266C102.676 27.3716 101.839 27.7652 100.757 27.7652C99.2152 27.7652 98.1328 26.6828 98.1328 25.2396C98.1328 23.124 99.9696 22.0252 103.151 22.0252V21.8612C103.151 20.7296 102.544 20.172 101.364 20.172C100.511 20.172 99.7728 20.3852 99.1168 20.8116L98.7231 19.5652C99.5104 19.0732 100.511 18.8272 101.675 18.8272C103.922 18.8272 105.054 20.008 105.054 22.386V25.5512C105.054 26.4204 105.086 27.0928 105.185 27.6012L103.463 27.5684ZM103.2 23.288C101.085 23.288 100.019 23.7964 100.019 25.0264C100.019 25.9284 100.56 26.3712 101.331 26.3712C102.298 26.3712 103.2 25.6332 103.2 24.6164V23.288Z" fill="#0A0E13"/>
<path d="M109.301 17.5644C108.662 17.5644 108.17 17.0724 108.17 16.4164C108.17 15.7604 108.678 15.2848 109.334 15.2848C109.99 15.2848 110.515 15.7604 110.498 16.4164C110.498 17.1052 110.006 17.5644 109.301 17.5644ZM108.383 18.9748H110.285V27.552H108.383V18.9748Z" fill="#0A0E13"/>
<path d="M113.68 15.0388H115.582V27.552H113.68V15.0388Z" fill="#0A0E13"/>
<path d="M123.684 27.5684L123.536 26.5844H123.487C122.897 27.3716 122.06 27.7652 120.978 27.7652C119.436 27.7652 118.354 26.6828 118.354 25.2396C118.354 23.124 120.191 22.0252 123.372 22.0252V21.8612C123.372 20.7296 122.766 20.172 121.585 20.172C120.732 20.172 119.994 20.3852 119.338 20.8116L118.944 19.5488C119.732 19.0568 120.732 18.8108 121.896 18.8108C124.143 18.8108 125.275 19.9916 125.275 22.3696V25.5348C125.275 26.404 125.308 27.0764 125.39 27.5848H123.684V27.5684ZM123.422 23.288C121.306 23.288 120.24 23.7964 120.24 25.0264C120.24 25.9284 120.781 26.3712 121.552 26.3712C122.52 26.3712 123.422 25.6332 123.422 24.6164V23.288Z" fill="#0A0E13"/>
<path d="M133.016 27.7652C131.802 27.7652 130.9 27.2568 130.31 26.24H130.277L130.162 27.5684H128.538C128.588 26.8796 128.604 26.1088 128.604 25.256V15.0388H130.523V20.2376H130.556C131.13 19.2864 132.032 18.8108 133.294 18.8108C135.361 18.8108 136.804 20.582 136.804 23.1568C136.804 25.8136 135.197 27.7652 133.016 27.7652ZM132.622 20.3032C131.523 20.3032 130.523 21.2544 130.523 22.5828V24.0916C130.523 25.2724 131.425 26.24 132.589 26.24C134.016 26.24 134.869 25.0756 134.869 23.2224C134.869 21.484 133.983 20.3032 132.622 20.3032Z" fill="#0A0E13"/>
<path d="M139.625 15.0388H141.527V27.552H139.625V15.0388Z" fill="#0A0E13"/>
<path d="M151.908 23.7308H146.185C146.218 25.3544 147.3 26.2728 148.891 26.2728C149.744 26.2728 150.514 26.1252 151.203 25.8628L151.498 27.1912C150.695 27.552 149.744 27.716 148.628 27.716C145.939 27.716 144.348 26.0268 144.348 23.3864C144.348 20.7624 145.972 18.778 148.415 18.778C150.596 18.778 151.99 20.4016 151.99 22.8616C151.99 23.206 151.974 23.5012 151.908 23.7308ZM150.17 22.3696C150.17 21.0412 149.498 20.1064 148.284 20.1064C147.185 20.1064 146.332 21.0576 146.201 22.3696H150.17Z" fill="#0A0E13"/>
<path d="M163.47 27.7652C160.961 27.7652 159.338 25.8956 159.338 23.3536C159.338 20.6968 160.994 18.8108 163.618 18.8108C166.094 18.8108 167.751 20.5984 167.751 23.206C167.751 25.8792 166.045 27.7652 163.47 27.7652ZM163.552 20.2048C162.175 20.2048 161.289 21.5004 161.289 23.288C161.289 25.0592 162.191 26.3384 163.536 26.3384C164.881 26.3384 165.783 24.9608 165.783 23.2388C165.766 21.5004 164.897 20.2048 163.552 20.2048Z" fill="#0A0E13"/>
<path d="M178.001 27.5684H176.098V22.632C176.098 21.1068 175.508 20.3524 174.36 20.3524C173.228 20.3524 172.458 21.32 172.458 22.4516V27.552H170.555V21.4348C170.555 20.6804 170.539 19.8604 170.49 18.9748H172.162L172.244 20.3032H172.294C172.802 19.3848 173.852 18.7944 175.016 18.7944C176.82 18.7944 178.001 20.172 178.001 22.4188V27.5684Z" fill="#0A0E13"/>
<path d="M190.481 20.418H188.382V24.5836C188.382 25.6496 188.759 26.1744 189.497 26.1744C189.825 26.1744 190.12 26.1416 190.35 26.0924L190.399 27.5356C190.022 27.6832 189.53 27.7488 188.923 27.7488C187.414 27.7488 186.529 26.9124 186.529 24.7476V20.418H185.282V18.9912H186.529V17.4168L188.398 16.8428V18.9748H190.498V20.418" fill="#0A0E13"/>
<path d="M200.584 27.5684H198.681V22.6648C198.681 21.1232 198.091 20.3524 196.943 20.3524C195.959 20.3524 195.04 21.0248 195.04 22.386V27.552H193.138V15.0388H195.04V20.1884H195.073C195.68 19.2536 196.533 18.7944 197.648 18.7944C199.468 18.7944 200.584 20.2048 200.584 22.4516V27.5684Z" fill="#0A0E13"/>
<path d="M210.325 23.7308H204.602C204.634 25.3544 205.717 26.2728 207.308 26.2728C208.16 26.2728 208.931 26.1252 209.62 25.8628L209.915 27.1912C209.112 27.552 208.16 27.716 207.045 27.716C204.356 27.716 202.765 26.0268 202.765 23.3864C202.765 20.7624 204.388 18.778 206.832 18.778C209.013 18.778 210.407 20.4016 210.407 22.8616C210.407 23.206 210.391 23.5012 210.325 23.7308ZM208.587 22.3696C208.587 21.0412 207.914 20.1064 206.701 20.1064C205.602 20.1064 204.733 21.0576 204.618 22.3696H208.587Z" fill="#0A0E13"/>
</g>
<defs>
<clipPath id="clip0_336_313">
<rect width="242.317" height="82" fill="white"/>
</clipPath>
</defs>
</svg>
