<svg width="422" height="168" viewBox="0 0 422 168" fill="none" xmlns="http://www.w3.org/2000/svg">
<path d="M153.35 79V32.1H165.075V69.955H183.5V79H153.35ZM186.981 79V32.1H198.706V79H186.981ZM205.432 79V32.1H217.827L235.247 60.374V32.1H246.302V79H235.247L216.487 48.783V79H205.432ZM252.999 79V32.1H285.226V41.145H264.724V50.458H281.809V59.503H264.724V69.955H285.226V79H252.999ZM319.575 32.1L336.727 79H325.002L321.652 69.486H301.887L298.47 79H287.08L304.5 32.1H319.575ZM305.103 60.441H318.503L311.87 41.413L305.103 60.441ZM340.283 79V32.1H359.445C370.835 32.1 377.937 37.795 377.937 46.907C377.937 53.272 374.453 58.029 368.557 59.905L380.617 79H367.686L358.44 63.188H352.008V79H340.283ZM352.008 54.143H357.435C363.398 54.143 365.877 51.664 365.877 47.644C365.877 43.624 363.398 41.145 357.435 41.145H352.008V54.143ZM153.35 135V88.1H165.075V125.955H183.5V135H153.35ZM217.635 88.1L234.787 135H223.062L219.712 125.486H199.947L196.53 135H185.14L202.56 88.1H217.635ZM203.163 116.441H216.563L209.93 97.413L203.163 116.441ZM238.343 135V88.1H258.443C268.828 88.1 274.389 92.187 274.389 99.155C274.389 103.979 271.307 108.066 266.751 109.607C273.049 110.746 277.002 114.766 277.002 121.198C277.002 129.573 269.833 135 258.376 135H238.343ZM250.068 125.955H259.046C262.664 125.955 264.942 123.878 264.942 120.595C264.942 117.312 262.664 115.235 259.046 115.235H250.068V125.955ZM250.068 106.525H257.706C260.989 106.525 262.999 104.649 262.999 101.701C262.999 98.887 260.989 97.145 257.706 97.145H250.068V106.525Z" fill="white"/>
<mask id="path-2-inside-1_36_2" fill="white">
<path d="M39 32H142V135H81C57.804 135 39 116.196 39 93V32Z"/>
</mask>
<path d="M39 32H142H39ZM142 147H81C51.1766 147 27 122.823 27 93H51C51 109.569 64.4315 123 81 123H142V147ZM81 147C51.1766 147 27 122.823 27 93V32H51V93C51 109.569 64.4315 123 81 123V147ZM142 32V135V32Z" fill="#FF312A" mask="url(#path-2-inside-1_36_2)"/>
<path d="M51 112.5L79.5 39" stroke="#FF312A" stroke-width="12"/>
<path d="M54.5 116.5L112.5 60.5" stroke="#FF312A" stroke-width="12"/>
<path d="M59.5 120L131 92.5" stroke="#FF312A" stroke-width="12"/>
</svg>