<svg width="440" height="96" viewBox="0 0 440 96" fill="none" xmlns="http://www.w3.org/2000/svg">
<path d="M1.62829 45.6974C1.62829 23.227 24.6197 26.3533 24.6197 15.7368C24.6197 12.1546 22.6658 10.396 19.6697 10.396C16.0224 10.396 13.2868 13.0013 12.6355 17.2349L1.88882 14.825C3.84276 6.94408 10.1605 0.951969 20.9724 0.951969C29.8303 0.951969 36.3434 5.83684 36.3434 14.6947C36.3434 29.3493 20.2559 29.0237 14.5895 38.2072H37.3204L36.0178 47H1.62829V45.6974ZM49.555 47V11.8289C47.9918 16.323 44.9306 18.1467 39.7852 18.1467V8.70263C47.9267 8.70263 49.555 6.48815 49.555 1.40789H60.953V47H49.555ZM126.038 47.1303C120.241 47.1303 116.529 46.4138 112.946 44.6553C110.211 46.1533 106.303 47.4559 102.004 47.4559C88.2614 47.4559 79.5989 39.1191 79.5989 24.2039C79.5989 9.28881 87.6101 0.951969 102.004 0.951969C116.398 0.951969 124.409 9.94013 124.409 23.5526C124.409 30.1961 121.934 35.5368 119.264 38.8586C121.348 39.1842 123.823 39.3145 126.038 39.3145V47.1303ZM91.3226 24.2039C91.3226 33.0618 95.1654 38.6632 102.656 38.6632C103.437 38.6632 104.349 38.5329 105.196 38.3375C102.525 35.602 99.4641 32.0197 97.445 28.5026L104.284 24.1388C106.433 28.0467 108.908 31.6941 110.797 34.1691C111.904 32.0197 112.686 28.8283 112.686 24.2039C112.686 15.346 108.843 10.396 102.004 10.396C95.1654 10.396 91.3226 15.346 91.3226 24.2039ZM150.214 47.4559C137.578 47.4559 129.697 40.4217 129.697 29.1539V1.40789H141.095V28.9586C141.095 35.0809 144.612 38.0118 150.214 38.0118C155.815 38.0118 159.332 35.0809 159.332 28.9586V1.40789H170.535V29.1539C170.535 40.4217 162.719 47.4559 150.214 47.4559ZM176.771 47V1.40789H208.099V10.2007H188.169V19.2539H204.778V28.0467H188.169V38.2072H208.099V47H176.771ZM230.287 47.4559C221.234 47.4559 212.376 42.5059 210.357 33.2572L221.169 30.9776C222.537 36.2533 226.249 38.6632 230.613 38.6632C233.674 38.6632 236.54 37.4908 236.54 34.3645C236.54 31.7592 234.651 30.8474 231.004 29.5447L222.537 26.5487C215.893 24.2039 211.855 21.273 211.855 14.3691C211.855 7.33486 217.587 0.951969 228.724 0.951969C239.21 0.951969 245.593 6.22763 247.938 13.7829L236.801 16.0625C235.693 11.9592 232.502 9.74473 228.203 9.74473C224.686 9.74473 222.928 11.5033 222.928 13.5224C222.928 15.6066 225.012 16.7138 227.878 17.6908L236.28 20.5566C242.337 22.6408 247.612 26.3533 247.612 33.4526C247.612 40.6822 243.053 47.4559 230.287 47.4559ZM261.99 47V10.2007H248.964V1.40789H286.415V10.2007H273.388V47H261.99ZM290.243 47V1.40789H301.641V47H290.243ZM328.565 47.4559C314.171 47.4559 306.16 39.1191 306.16 24.2039C306.16 9.28881 314.171 0.951969 328.565 0.951969C342.96 0.951969 350.971 9.28881 350.971 24.2039C350.971 39.1191 342.96 47.4559 328.565 47.4559ZM317.884 24.2039C317.884 33.0618 321.727 38.0118 328.565 38.0118C335.404 38.0118 339.247 33.0618 339.247 24.2039C339.247 15.346 335.404 10.396 328.565 10.396C321.727 10.396 317.884 15.346 317.884 24.2039ZM355.438 47V1.40789H367.487L384.421 28.8934V1.40789H395.168V47H384.421L366.185 17.6257V47H355.438ZM419.004 47.4559C409.95 47.4559 401.093 42.5059 399.073 33.2572L409.885 30.9776C411.253 36.2533 414.966 38.6632 419.329 38.6632C422.391 38.6632 425.256 37.4908 425.256 34.3645C425.256 31.7592 423.368 30.8474 419.72 29.5447L411.253 26.5487C404.61 24.2039 400.571 21.273 400.571 14.3691C400.571 7.33486 406.303 0.951969 417.441 0.951969C427.927 0.951969 434.31 6.22763 436.654 13.7829L425.517 16.0625C424.41 11.9592 421.218 9.74473 416.919 9.74473C413.402 9.74473 411.644 11.5033 411.644 13.5224C411.644 15.6066 413.728 16.7138 416.594 17.6908L424.996 20.5566C431.053 22.6408 436.329 26.3533 436.329 33.4526C436.329 40.6822 431.769 47.4559 419.004 47.4559Z" fill="white"/>
<path d="M169.708 75.196V72.5455H183.635V75.196H178.24V90H175.103V75.196H169.708ZM186.319 90V72.5455H189.481V79.9347H197.569V72.5455H200.74V90H197.569V82.5852H189.481V90H186.319ZM204.179 90V72.5455H215.531V75.196H207.341V79.9347H214.943V82.5852H207.341V87.3494H215.599V90H204.179ZM226.951 90H223.576L229.721 72.5455H233.625L239.778 90H236.403L231.741 76.125H231.605L226.951 90ZM227.062 83.1562H236.267V85.696H227.062V83.1562ZM242.077 90V72.5455H248.623C249.963 72.5455 251.088 72.7955 251.998 73.2955C252.912 73.7955 253.603 74.483 254.069 75.358C254.54 76.2273 254.776 77.2159 254.776 78.3239C254.776 79.4432 254.54 80.4375 254.069 81.3068C253.597 82.1761 252.901 82.8608 251.98 83.3608C251.06 83.8551 249.926 84.1023 248.58 84.1023H244.242V81.5028H248.154C248.938 81.5028 249.58 81.3665 250.08 81.0938C250.58 80.821 250.949 80.446 251.188 79.9688C251.432 79.4915 251.554 78.9432 251.554 78.3239C251.554 77.7045 251.432 77.1591 251.188 76.6875C250.949 76.2159 250.577 75.8494 250.071 75.5881C249.571 75.321 248.926 75.1875 248.137 75.1875H245.239V90H242.077ZM257.522 90V72.5455H264.068C265.409 72.5455 266.534 72.7955 267.443 73.2955C268.358 73.7955 269.048 74.483 269.514 75.358C269.985 76.2273 270.221 77.2159 270.221 78.3239C270.221 79.4432 269.985 80.4375 269.514 81.3068C269.042 82.1761 268.346 82.8608 267.426 83.3608C266.505 83.8551 265.372 84.1023 264.025 84.1023H259.687V81.5028H263.599C264.383 81.5028 265.025 81.3665 265.525 81.0938C266.025 80.821 266.395 80.446 266.633 79.9688C266.877 79.4915 267 78.9432 267 78.3239C267 77.7045 266.877 77.1591 266.633 76.6875C266.395 76.2159 266.022 75.8494 265.517 75.5881C265.017 75.321 264.372 75.1875 263.582 75.1875H260.684V90H257.522Z" fill="white"/>
</svg>
