<svg width="422" height="31" viewBox="0 0 422 31" fill="none" xmlns="http://www.w3.org/2000/svg">
<path d="M13.1047 30.2877C7.39229 30.2877 1.80313 27.1643 0.529132 21.3286L7.3512 19.8902C8.21423 23.219 10.5567 24.7396 13.3102 24.7396C15.2418 24.7396 17.05 23.9999 17.05 22.0272C17.05 20.3834 15.8582 19.808 13.5568 18.9861L8.21423 17.0956C4.02236 15.6161 1.47436 13.7668 1.47436 9.41051C1.47436 4.97206 5.09087 0.944579 12.1184 0.944579C18.735 0.944579 22.7625 4.27342 24.242 9.04064L17.2144 10.479C16.5158 7.88993 14.502 6.49264 11.7896 6.49264C9.57042 6.49264 8.46081 7.60226 8.46081 8.87626C8.46081 10.1914 9.77591 10.89 11.5842 11.5065L16.8856 13.3147C20.7077 14.6298 24.0365 16.9723 24.0365 21.4519C24.0365 26.0136 21.1597 30.2877 13.1047 30.2877ZM44.4141 1.23226L54.9348 30H47.7429L45.6881 24.1643H33.5645L31.4686 30H24.4821L35.1673 1.23226H44.4141ZM35.5372 18.6162H43.7565L39.6879 6.94471L35.5372 18.6162ZM57.1159 30V1.23226H64.7188L75.4039 18.5751V1.23226H82.1849V30H75.4039L63.8968 11.4654V30H57.1159Z" fill="white"/>
<path d="M94.9217 30V1.23226H114.689V6.78032H102.114V12.4928H112.593V18.0408H102.114V24.4519H114.689V30H94.9217ZM117.597 30V1.23226H125.2L135.885 18.5751V1.23226H142.666V30H135.885L124.378 11.4654V30H117.597ZM153.309 30V6.78032H145.089V1.23226H168.72V6.78032H160.501V30H153.309ZM171.135 30V1.23226H190.903V6.78032H178.327V12.4928H188.807V18.0408H178.327V24.4519H190.903V30H171.135ZM193.811 30V1.23226H205.564C212.551 1.23226 216.907 4.72548 216.907 10.3146C216.907 14.2188 214.77 17.1367 211.154 18.2874L218.551 30H210.619L204.948 20.3012H201.003V30H193.811ZM201.003 14.7531H204.332C207.989 14.7531 209.51 13.2325 209.51 10.7667C209.51 8.3009 207.989 6.78032 204.332 6.78032H201.003V14.7531ZM226.633 30V6.78032H218.413V1.23226H242.044V6.78032H233.825V30H226.633ZM257.925 1.23226L268.445 30H261.253L259.199 24.1643H247.075L244.979 30H237.993L248.678 1.23226H257.925ZM249.048 18.6162H257.267L253.199 6.94471L249.048 18.6162ZM270.626 30V1.23226H277.818V30H270.626ZM281.944 30V1.23226H289.547L300.232 18.5751V1.23226H307.013V30H300.232L288.725 11.4654V30H281.944ZM324.519 30L317.902 12.9859V30H311.121V1.23226H319.957L327.519 20.7943L334.793 1.23226H343.629V30H336.848V12.2462L330.231 30H324.519ZM347.723 30V1.23226H367.491V6.78032H354.915V12.4928H365.395V18.0408H354.915V24.4519H367.491V30H347.723ZM370.398 30V1.23226H378.001L388.687 18.5751V1.23226H395.468V30H388.687L377.179 11.4654V30H370.398ZM406.11 30V6.78032H397.891V1.23226H421.521V6.78032H413.302V30H406.11Z" fill="#505773"/>
</svg>
